# xmcd
#
# Track frame offsets: 
#        150
#        23935
#        47640
#        66226
#        86261
#        106390
#        125510
#        146493
#        166681
#        181688
#        200039
#
# Disc length: 3086 seconds
#
# Revision: 0
# Processed by: cddbd v1.5.2PL0 Copyright (c) Steve Scherf et al.
# Submitted via: ExactAudioCopyFreeDBPlugin 1.0
#
DISCID=8f0c0c0b
DTITLE=Kaela Sinclair - Sun and Mirror
DYEAR=2013
DGENRE=Alternative
TTITLE0=Ghosts You've Won
TTITLE1=Stranger
TTITLE2=Without
TTITLE3=Lock and Key
TTITLE4=Better
TTITLE5=Original Sin
TTITLE6=Like Kings
TTITLE7=Run
TTITLE8=The Realist
TTITLE9=Remnants Of
TTITLE10=Coral Castles
EXTD=
EXTT0=
EXTT1=
EXTT2=
EXTT3=
EXTT4=
EXTT5=
EXTT6=
EXTT7=
EXTT8=
EXTT9=
EXTT10=
PLAYORDER=
